HIERARCHY
ROOT Hips
{
	OFFSET 0.00000 0.00000 0.00000
	CHANNELS 6 Xposition Yposition Zposition Zrotation Yrotation Xrotation 
	JOINT LHipJoint
	{
		OFFSET 0 0 0
		CHANNELS 3 Zrotation Yrotation Xrotation
		JOINT LeftUpLeg
		{
			OFFSET 1.36337 -1.57426 1.11036
			CHANNELS 3 Zrotation Yrotation Xrotation
			JOINT LeftLeg
			{
				OFFSET 2.38468 -6.55187 0.00000
				CHANNELS 3 Zrotation Yrotation Xrotation
				JOINT LeftFoot
				{
					OFFSET 2.37166 -6.51609 0.00000
					CHANNELS 3 Zrotation Yrotation Xrotation
					JOINT LeftToeBase
					{
						OFFSET 0.29078 -0.79891 2.01393
						CHANNELS 3 Zrotation Yrotation Xrotation
						End Site
						{
							OFFSET 0.00000 -0.00000 1.07924
						}
					}
				}
			}
		}
	}
	JOINT RHipJoint
	{
		OFFSET 0 0 0
		CHANNELS 3 Zrotation Yrotation Xrotation
		JOINT RightUpLeg
		{
			OFFSET -1.36349 -1.57426 1.11036
			CHANNELS 3 Zrotation Yrotation Xrotation
			JOINT RightLeg
			{
				OFFSET -2.29562 -6.30717 0.00000
				CHANNELS 3 Zrotation Yrotation Xrotation
				JOINT RightFoot
				{
					OFFSET -2.40985 -6.62100 0.00000
					CHANNELS 3 Zrotation Yrotation Xrotation
					JOINT RightToeBase
					{
						OFFSET -0.23197 -0.63733 1.92232
						CHANNELS 3 Zrotation Yrotation Xrotation
						End Site
						{
							OFFSET -0.00000 -0.00000 1.01562
						}
					}
				}
			}
		}
	}
	JOINT LowerBack
	{
		OFFSET 0 0 0
		CHANNELS 3 Zrotation Yrotation Xrotation
		JOINT Spine
		{
			OFFSET -0.08565 2.03602 -0.24562
			CHANNELS 3 Zrotation Yrotation Xrotation
			JOINT Spine1
			{
				OFFSET -0.00036 2.05693 0.00216
				CHANNELS 3 Zrotation Yrotation Xrotation
				JOINT Neck
				{
					OFFSET 0 0 0
					CHANNELS 3 Zrotation Yrotation Xrotation
					JOINT Neck1
					{
						OFFSET -0.03664 1.69515 0.31789
						CHANNELS 3 Zrotation Yrotation Xrotation
						JOINT Head
						{
							OFFSET 0.00932 1.70181 -0.46013
							CHANNELS 3 Zrotation Yrotation Xrotation
							End Site
							{
								OFFSET 0.01243 1.77620 -0.19377
							}
						}
					}
				}
				JOINT LeftShoulder
				{
					OFFSET 0 0 0
					CHANNELS 3 Zrotation Yrotation Xrotation
					JOINT LeftArm
					{
						OFFSET 3.74344 0.81315 -0.36647
						CHANNELS 3 Zrotation Yrotation Xrotation
						JOINT LeftForeArm
						{
							OFFSET 4.97185 -0.00000 -0.00000
							CHANNELS 3 Zrotation Yrotation Xrotation
							JOINT LeftHand
							{
								OFFSET 3.35811 -0.00000 0.00000
								CHANNELS 3 Zrotation Yrotation Xrotation
								JOINT LeftFingerBase
								{
									OFFSET 0 0 0
									CHANNELS 3 Zrotation Yrotation Xrotation
									JOINT LeftHandIndex1
									{
										OFFSET 0.62278 -0.00000 0.00000
										CHANNELS 3 Zrotation Yrotation Xrotation
										End Site
										{
											OFFSET 0.50210 -0.00000 0.00000
										}
									}
								}
								JOINT LThumb
								{
									OFFSET 0 0 0
									CHANNELS 3 Zrotation Yrotation Xrotation
									End Site
									{
										OFFSET 0.50976 -0.00000 0.50976
									}
								}
							}
						}
					}
				}
				JOINT RightShoulder
				{
					OFFSET 0 0 0
					CHANNELS 3 Zrotation Yrotation Xrotation
					JOINT RightArm
					{
						OFFSET -3.75385 0.50666 -0.06525
						CHANNELS 3 Zrotation Yrotation Xrotation
						JOINT RightForeArm
						{
							OFFSET -4.96493 -0.00000 -0.00000
							CHANNELS 3 Zrotation Yrotation Xrotation
							JOINT RightHand
							{
								OFFSET -3.34929 -0.00000 0.00000
								CHANNELS 3 Zrotation Yrotation Xrotation
								JOINT RightFingerBase
								{
									OFFSET 0 0 0
									CHANNELS 3 Zrotation Yrotation Xrotation
									JOINT RightHandIndex1
									{
										OFFSET -0.63804 -0.00000 0.00000
										CHANNELS 3 Zrotation Yrotation Xrotation
										End Site
										{
											OFFSET -0.51441 -0.00000 0.00000
										}
									}
								}
								JOINT RThumb
								{
									OFFSET 0 0 0
									CHANNELS 3 Zrotation Yrotation Xrotation
									End Site
									{
										OFFSET -0.52226 -0.00000 0.52226
									}
								}
							}
						}
					}
				}
			}
		}
	}
}
MOTION
Frames: 5
Frame Time: 0.0555556
0.00 0.00 0.00 730.9080 12.8598 379.8300 0.0000 0.0000 0.0000 -15.1444 0.6841 -56.0773 14.0854 19.1397 72.4652 0.7737 -13.6451 -17.1706 0.2910 -3.4689 -9.5871 0.0000 0.0000 0.0000 -11.1304 9.6992 -57.4708 -13.2567 -18.8729 69.9209 -1.5944 -7.1395 -27.3559 -0.7734 5.6153 -15.6723 5.2856 -3.0695 33.1661 1.0720 -1.8375 8.9073 -1.0396 -0.8005 -7.2181 1.1470 4.7655 -34.5043 -14.6158 11.0878 23.5718 -3.7770 2.6187 15.0612 -0.0000 0.0000 0.0000 -76.0135 -45.5774 107.6145 55.6621 -55.0386 -30.7579 -0.0000 0.0000 -15.9992 23.2982 -1.5151 -0.6523 -7.1250 0.0000 -0.0000 -2.5407 28.3269 1.0318 -0.0000 0.0000 0.0000 37.0917 20.4257 82.7544 -93.2552 59.9599 -62.8187 0.0000 -0.0000 -79.7483 -48.2743 -46.1281 38.9514 7.1250 -0.0000 -0.0000 -50.3647 -85.9369 47.1611
0.00 0.00 0.00 736.4060 7.1660 378.6380 0.0000 0.0000 0.0000 -5.4531 2.0750 -59.3743 10.3643 17.6097 60.6990 0.1750 -6.5777 -8.1683 2.1382 -9.1482 -26.2599 0.0000 0.0000 0.0000 -16.4414 11.3098 -62.5832 -18.8087 -19.9659 86.5149 -3.1299 -4.7154 -35.3188 -0.9604 6.2400 -17.4823 8.0316 -5.9245 37.4430 1.4460 -3.9925 10.5086 -1.1157 -1.7273 -6.9837 3.4146 8.2443 -34.0758 -16.1098 15.2105 22.3414 -3.7141 4.4586 15.2444 -0.0000 0.0000 0.0000 -71.0406 -53.1933 103.9495 54.1249 -54.5295 -29.5020 -0.0000 -0.0000 0.3802 38.3455 -23.0422 -17.2036 -7.1250 0.0000 -0.0000 5.6250 1.6272 -5.4898 -0.0000 0.0000 0.0000 40.5896 19.9305 77.2435 -107.1039 58.8652 -74.7560 0.0000 -0.0000 -77.8642 -51.1411 -40.3046 38.7586 7.1250 -0.0000 -0.0000 -46.9120 -80.7802 39.7738
0.00 0.00 0.00 732.7840 3.4704 377.8080 0.0000 0.0000 0.0000 -3.5397 -2.6076 -59.8374 10.6763 17.7730 61.7259 0.4279 -3.3436 -11.6634 2.3173 -9.4978 -27.3653 0.0000 0.0000 0.0000 -17.7248 12.5153 -54.0054 -16.4182 -19.6896 79.4751 -3.1906 -5.9991 -36.2152 -2.0557 8.9811 -25.7363 2.9786 -3.3580 41.1322 -0.4605 -2.7859 9.3783 -0.8805 -1.2071 -9.3623 6.0666 11.9873 -31.2122 -19.1145 19.6977 19.1217 -4.1211 6.5763 14.6261 -0.0000 0.0000 0.0000 -81.6031 -51.8863 114.5027 41.1359 -48.7286 -19.2887 -0.0000 -0.0000 2.4001 35.0711 -22.8471 -15.2478 -7.1250 0.0000 -0.0000 3.6945 2.7898 -3.5177 -0.0000 0.0000 0.0000 49.2150 13.0767 73.9545 -82.3516 59.7778 -53.3813 0.0000 -0.0000 -87.1697 -25.9210 -37.8117 16.5924 7.1250 -0.0000 -0.0000 13.0229 -70.3765 -7.9375
0.00 0.00 0.00 731.4460 1.1072 370.2040 0.0000 0.0000 0.0000 -2.6366 4.7834 -66.5715 15.7739 19.5663 77.5574 0.2506 5.3882 -12.9698 1.1964 -6.9403 -19.5386 0.0000 0.0000 0.0000 -19.5820 2.0278 -56.8603 -21.3751 -19.9546 94.0235 -3.1966 -5.0405 -35.8104 -2.4647 9.7735 -28.2464 1.7765 -1.7833 44.2106 -2.8116 -1.6608 9.5942 -3.2307 -0.6487 -10.0625 8.6546 15.8788 -24.3725 -26.5345 24.9790 11.7582 -5.8637 9.3740 13.0049 -0.0000 0.0000 0.0000 -90.5977 -47.0956 124.0670 49.7380 -52.8893 -25.9650 -0.0000 0.0000 -0.7728 40.0581 -21.2973 -16.9824 -7.1250 0.0000 -0.0000 7.0094 3.1635 -6.6627 -0.0000 0.0000 0.0000 57.9581 4.0601 65.9999 -72.8383 58.8574 -45.1946 0.0000 -0.0000 -87.7584 -15.2199 -32.7167 8.3653 7.1250 -0.0000 -0.0000 20.6381 -62.4616 -8.9604
0.00 0.00 0.00 902.5600 55.3482 558.0110 0.0000 0.0000 0.0000 -18.8860 -6.0638 -52.1865 13.4949 18.9536 70.6558 2.3962 -8.9819 -27.8465 0.5284 4.6582 12.9363 0.0000 0.0000 0.0000 6.3391 8.8158 -57.9154 -10.1006 -17.4660 59.8240 -1.1154 9.9918 -19.0907 -2.0933 9.0578 -25.9761 -6.3229 -0.0640 34.6959 -0.9655 -1.1366 7.3168 2.6496 0.0938 -9.1753 -3.0080 1.2236 -31.6229 -9.8712 5.4629 13.2711 -2.1156 1.2818 9.5489 0.0000 -0.0000 0.0000 -89.1778 -39.2167 124.6031 38.9941 -47.4625 -17.6944 -0.0000 0.0000 -3.1126 38.9480 -18.6659 -14.5039 -7.1250 0.0000 -0.0000 6.8481 6.6408 -6.0547 0.0000 -0.0000 0.0000 76.2171 9.7956 59.2722 -34.5874 44.5152 -14.5233 0.0000 -0.0000 -65.5411 1.5817 -41.8234 -1.0549 7.1250 -0.0000 -0.0000 49.2336 -65.1800 -26.8799
